<svg width="239" height="70" viewBox="0 0 239 70" fill="none" xmlns="http://www.w3.org/2000/svg">
<path d="M29.3117 59.7799H39.6225V0.556641H24.6249C9.54216 0.556641 1.61732 8.31106 1.61732 19.7297C1.61732 28.8475 5.9632 34.2159 13.7176 39.7548L0.253906 59.7799H11.4169L26.4144 37.3688L21.2164 33.8751C14.9106 29.6144 11.8429 26.2911 11.8429 19.1332C11.8429 12.8274 16.274 8.5667 24.7101 8.5667H29.3117V59.7799ZM228.114 60.6321C232.801 60.6321 236.125 59.7799 238.596 57.9905V49.7248C236.039 51.5142 232.972 52.622 228.711 52.622C221.468 52.622 218.485 46.9979 218.485 38.1357C218.485 28.8475 222.15 24.0755 228.796 24.0755C232.716 24.0755 236.551 25.4389 238.596 26.7171V18.1106C236.465 16.9176 232.716 16.0655 227.688 16.0655C214.736 16.0655 208.004 25.3537 208.004 38.3914C208.004 52.7072 214.566 60.6321 228.114 60.6321ZM164.716 56.8827V48.617C161.563 50.7473 156.28 52.622 151.337 52.622C143.924 52.622 141.112 49.1283 140.686 41.9703H165.142V36.6019C165.142 21.6896 158.58 16.0655 148.44 16.0655C136.084 16.0655 130.204 25.5242 130.204 38.4766C130.204 53.3889 137.533 60.6321 150.485 60.6321C156.961 60.6321 161.733 58.9278 164.716 56.8827ZM71.8331 16.9176V33.8751H58.2842V16.9176H48.1438V59.7799H58.2842V41.8851H71.8331V59.7799H81.9735V16.9176H71.8331ZM127.733 51.7699H123.217V16.9176H93.6478V20.5818C93.6478 31.063 92.9661 44.612 89.3871 51.7699H86.2342V69.5795H95.6077V59.7799H118.36V69.5795H127.733V51.7699ZM197.097 59.7799H208.601L192.325 36.6871L206.641 16.9176H196.415L182.099 36.6871V16.9176H171.959V59.7799H182.099V38.7322L197.097 59.7799ZM148.27 24.0755C153.297 24.0755 154.831 28.251 154.831 33.6194V34.4716H140.686C140.941 27.6545 143.412 24.0755 148.27 24.0755ZM113.076 51.7699H98.7606C101.573 45.2937 102.34 33.6194 102.34 26.2059V24.9277H113.076V51.7699Z" fill= "rgba(255, 255, 255, 0.7)"/>
</svg>
